<svg width="2000" height="1000" xmlns="http://www.w3.org/2000/svg">
    <defs>
        <linearGradient id="a" gradientTransform="rotate(90)">
            <stop offset="5%" stop-color="#9cabbe" />
            <stop offset="95%" stop-color="#b4c0ce" />
        </linearGradient>
        <linearGradient id="b" gradientTransform="rotate(90)">
            <stop offset="5%" stop-color="#a5b2c5" />
            <stop offset="95%" stop-color="#bbc5d3" />
        </linearGradient>
        <linearGradient id="c" gradientTransform="rotate(90)">
            <stop offset="5%" stop-color="#adbacb" />
            <stop offset="95%" stop-color="#c1cbd8" />
        </linearGradient>
        <linearGradient id="d" gradientTransform="rotate(90)">
            <stop offset="5%" stop-color="#b6c2d1" />
            <stop offset="95%" stop-color="#c8d1dc" />
        </linearGradient>
        <linearGradient id="e" gradientTransform="rotate(90)">
            <stop offset="5%" stop-color="#bec9d8" />
            <stop offset="95%" stop-color="#ced6e1" />
        </linearGradient>
        <linearGradient id="f" gradientTransform="rotate(90)">
            <stop offset="5%" stop-color="#c7d1de" />
            <stop offset="95%" stop-color="#d5dce6" />
        </linearGradient>
        <linearGradient id="g" gradientTransform="rotate(90)">
            <stop offset="5%" stop-color="#c7d1de" />
            <stop offset="95%" stop-color="#d5dce6" />
        </linearGradient>
        <linearGradient id="h" gradientTransform="rotate(90)">
            <stop offset="5%" stop-color="#bec9d8" />
            <stop offset="95%" stop-color="#ced6e1" />
        </linearGradient>
        <linearGradient id="i" gradientTransform="rotate(90)">
            <stop offset="5%" stop-color="#b6c2d1" />
            <stop offset="95%" stop-color="#c8d1dc" />
        </linearGradient>
        <linearGradient id="j" gradientTransform="rotate(90)">
            <stop offset="5%" stop-color="#adbacb" />
            <stop offset="95%" stop-color="#c1cbd8" />
        </linearGradient>
        <linearGradient id="k" gradientTransform="rotate(90)">
            <stop offset="5%" stop-color="#a5b2c5" />
            <stop offset="95%" stop-color="#bbc5d3" />
        </linearGradient>
        <linearGradient id="l" gradientTransform="rotate(90)">
            <stop offset="5%" stop-color="#9cabbe" />
            <stop offset="95%" stop-color="#b4c0ce" />
        </linearGradient>
        <linearGradient id="m" gradientTransform="rotate(90)">
            <stop offset="5%" stop-color="#94a3b8" />
            <stop offset="95%" stop-color="#aebac9" />
        </linearGradient>
    </defs>
    <path fill="#94a3b8" d="M0 0h2000v1000H0z" />
    <path
        d="M0 71c91.812-11.547 183.624-23.093 272-19s173.316 23.826 247 29c73.684 5.174 136.111-4.211 217-4 80.889.211 180.238 10.018 278 11 97.762.982 193.936-6.86 262-6 68.064.86 108.017 10.424 191 10 82.983-.424 208.995-10.835 305-16 96.005-5.165 162.002-5.082 268-5l-40 929H0Z"
        fill="url(#a)"
    />
    <path
        d="M0 142c83.908-9.86 167.817-19.721 253-16 85.183 3.721 171.64 21.024 249 23 77.36 1.976 145.62-11.377 229-15 83.38-3.623 181.881 2.482 274 7s177.857 7.448 259 5c81.143-2.448 157.692-10.274 241-14 83.308-3.726 173.374-3.35 257-1s160.813 6.675 278 11l-40 858H0Z"
        fill="url(#b)"
    />
    <path
        d="M0 214c105.554 2.626 211.107 5.252 281 6 69.893.748 104.125-.383 186-3s211.391-6.721 302-12c90.609-5.279 142.31-11.732 214-12 71.69-.268 163.37 5.65 253 5 89.63-.65 177.208-7.867 266-2s178.798 24.82 262 30 159.601-3.41 276-12l-40 786H0Z"
        fill="url(#c)"
    />
    <path
        d="M0 285c91.646 9.334 183.291 18.668 273 18 89.709-.668 177.481-11.336 253-20s138.784-15.322 220-19c81.216-3.678 180.381-4.375 270 3s169.692 22.822 248 27c78.308 4.178 154.852-2.914 233-2 78.148.914 157.9 9.832 242 10 84.1.168 172.55-8.416 301-17l-40 715H0Z"
        fill="url(#d)"
    />
    <path
        d="M0 357c91.657-1.633 183.315-3.267 262-9 78.685-5.733 144.399-15.566 229-10 84.601 5.566 188.09 26.53 268 32 79.91 5.47 136.238-4.554 209-9s161.957-3.316 261 1 207.935 11.816 291 7c83.065-4.816 140.304-21.947 216-26 75.696-4.053 169.848 4.974 304 14l-40 643H0Z"
        fill="url(#e)"
    />
    <path
        d="M0 428c74.958-8.087 149.917-16.175 241-12 91.083 4.175 198.292 20.612 289 27 90.708 6.388 164.917 2.726 238-1s145.042-7.518 223-7c77.958.518 161.917 5.345 250 8 88.083 2.655 180.292 3.138 274-4s188.917-21.897 270-25c81.083-3.103 148.042 5.448 255 14l-40 572H0Z"
        fill="url(#f)"
    />
    <path
        d="M0 500c61.393-10.176 122.786-20.353 215-19 92.214 1.353 215.248 14.235 318 15 102.752.765 185.222-10.585 247-10 61.778.585 102.863 13.107 191 20 88.137 6.893 223.325 8.157 312 9 88.675.843 130.835 1.265 208 2 77.165.735 189.333 1.781 280-1 90.667-2.781 159.834-9.39 269-16l-40 500H0Z"
        fill="url(#g)"
    />
    <path
        d="M0 571c101.145-9.202 202.29-18.404 273-21 70.71-2.596 110.985 1.414 193 12s205.77 27.75 304 25c98.23-2.75 170.935-25.41 242-34s140.492-3.106 221 7c80.508 10.106 172.098 24.836 269 30 96.902 5.164 199.115.761 283-4 83.885-4.761 149.443-9.88 255-15l-40 429H0Z"
        fill="url(#h)"
    />
    <path
        d="M0 642c84.804-9.435 169.607-18.87 242-14 72.393 4.87 132.375 24.048 222 27 89.625 2.952 208.891-10.32 300-10 91.109.32 154.06 14.232 237 11 82.94-3.232 185.87-23.609 264-31 78.13-7.391 131.458-1.798 202 7s158.298 20.8 250 23c91.702 2.2 187.351-5.4 323-13l-40 358H0Z"
        fill="url(#i)"
    />
    <path
        d="M0 714c97.815-5.966 195.63-11.933 270-10 74.37 1.933 125.294 11.764 196 10 70.706-1.764 161.193-15.124 250-21 88.807-5.876 175.935-4.268 265 4s180.07 23.196 260 27c79.93 3.804 148.79-3.514 239-11 90.21-7.486 201.775-15.139 292-15 90.225.139 159.113 8.07 268 16l-40 286H0Z"
        fill="url(#j)"
    />
    <path
        d="M0 785c92.406-.333 184.812-.666 275-2 90.188-1.334 178.159-3.669 260-2 81.841 1.669 157.553 7.341 232 6 74.447-1.341 147.631-9.696 224-6 76.369 3.696 155.924 19.444 239 16 83.076-3.444 169.674-26.081 251-31 81.326-4.919 157.379 7.88 243 14 85.621 6.12 180.81 5.56 316 5l-40 215H0Z"
        fill="url(#k)"
    />
    <path
        d="M0 857c99.544 6.886 199.087 13.772 275 12 75.913-1.772 128.195-12.204 213-17 84.805-4.796 202.133-3.958 298 2 95.867 5.958 170.274 17.036 237 21 66.726 3.964 125.772.815 213-3s202.638-8.296 288-11c85.362-2.704 140.675-3.63 215-4 74.325-.37 167.663-.185 301 0l-40 143H0Z"
        fill="url(#l)"
    />
    <path
        d="M0 928c89.596 4.118 179.192 8.236 261 4 81.808-4.236 155.826-16.825 243-24 87.174-7.175 187.502-8.937 271 1 83.498 9.937 150.167 31.571 223 39 72.833 7.429 151.832.651 235-4s170.507-7.175 251-5 154.14 9.05 239 8c84.86-1.05 180.93-10.025 317-19l-40 72H0Z"
        fill="url(#m)"
    />
</svg>
